<svg width="111" height="111" viewBox="0 0 111 111" fill="none" xmlns="http://www.w3.org/2000/svg">
<path d="M5.62574 2L1.84375 5.77647M5.62574 27.8059L1.84375 31.5824M5.62574 53.6118L1.84375 57.3882M5.62574 79.4176L1.84375 83.1941M5.62574 105.224L1.84375 109M31.4693 2L27.6874 5.77647M31.4693 27.8059L27.6874 31.5824M31.4693 53.6118L27.6874 57.3882M31.4693 79.4176L27.6874 83.1941M31.4693 105.224L27.6874 109M57.3129 2L53.531 5.77647M57.3129 27.8059L53.531 31.5824M57.3129 53.6118L53.531 57.3882M57.3129 79.4176L53.531 83.1941M57.3129 105.224L53.531 109M83.1565 2L79.3746 5.77647M83.1565 27.8059L79.3746 31.5824M83.1565 53.6118L79.3746 57.3882M83.1565 79.4176L79.3746 83.1941M83.1565 105.224L79.3746 109M109 2L105.218 5.77647M109 27.8059L105.218 31.5824M109 53.6118L105.218 57.3882M109 79.4176L105.218 83.1941M109 105.224L105.218 109" stroke="#003559" stroke-width="5"/>
</svg>
