<svg width="115" height="94" viewBox="0 0 115 94" fill="none" xmlns="http://www.w3.org/2000/svg">
<path fill-rule="evenodd" clip-rule="evenodd" d="M0.000976384 6.38349L6.36494 0.0195312L9.90047 3.55507L3.53651 9.91903L0.000976384 6.38349ZM-0.000976562 27.2331L6.36298 20.8691L9.89852 24.4047L3.53456 30.7686L-0.000976562 27.2331ZM6.36494 41.7178L0.000976384 48.0817L3.53651 51.6173L9.90047 45.2533L6.36494 41.7178ZM0.000976384 68.9313L6.36494 62.5674L9.90047 66.1029L3.53651 72.4669L0.000976384 68.9313ZM6.36494 83.417L0.000976384 89.781L3.53651 93.3165L9.90047 86.9525L6.36494 83.417ZM26.0615 6.38349L32.4255 0.0195312L35.961 3.55507L29.5971 9.91903L26.0615 6.38349ZM32.4255 20.8691L26.0615 27.2331L29.5971 30.7686L35.961 24.4047L32.4255 20.8691ZM26.0635 48.0817L32.4274 41.7178L35.963 45.2533L29.599 51.6173L26.0635 48.0817ZM32.4255 62.5674L26.0615 68.9313L29.5971 72.4669L35.961 66.1029L32.4255 62.5674ZM26.0635 89.781L32.4274 83.417L35.963 86.9525L29.599 93.3165L26.0635 89.781ZM58.4899 0.0195312L52.126 6.38349L55.6615 9.91903L62.0255 3.55507L58.4899 0.0195312ZM52.126 27.2331L58.4899 20.8691L62.0255 24.4047L55.6615 30.7686L52.126 27.2331ZM58.488 41.7178L52.124 48.0817L55.6596 51.6173L62.0235 45.2533L58.488 41.7178ZM52.126 68.9313L58.4899 62.5674L62.0255 66.1029L55.6615 72.4669L52.126 68.9313ZM58.4899 83.417L52.126 89.781L55.6615 93.3165L62.0255 86.9525L58.4899 83.417ZM78.1826 6.38349L84.5466 0.0195312L88.0821 3.55507L81.7181 9.91903L78.1826 6.38349ZM84.5485 20.8691L78.1846 27.2331L81.7201 30.7686L88.0841 24.4047L84.5485 20.8691ZM78.1826 48.0817L84.5466 41.7178L88.0821 45.2533L81.7181 51.6173L78.1826 48.0817ZM84.5485 62.5674L78.1846 68.9313L81.7201 72.4669L88.0841 66.1029L84.5485 62.5674ZM78.1846 89.781L84.5485 83.417L88.0841 86.9525L81.7201 93.3165L78.1846 89.781ZM110.609 0.0195312L104.245 6.38349L107.781 9.91903L114.145 3.55507L110.609 0.0195312ZM104.245 27.2331L110.609 20.8691L114.145 24.4047L107.781 30.7686L104.245 27.2331ZM110.609 41.7178L104.245 48.0817L107.781 51.6173L114.145 45.2533L110.609 41.7178ZM104.245 68.9313L110.609 62.5674L114.145 66.1029L107.781 72.4669L104.245 68.9313ZM110.609 83.417L104.245 89.781L107.781 93.3165L114.145 86.9525L110.609 83.417Z" fill="#003559"/>
</svg>
